<svg xmlns="http://www.w3.org/2000/svg" xmlns:xlink="http://www.w3.org/1999/xlink" version="1.1" x="0px" y="0px" viewBox="0 0 100 100" enable-background="new 0 0 100 100" xml:space="preserve"><g><path d="M65.136,94.354H34.821c-0.53,0-1.039-0.211-1.414-0.586c-0.38-0.379-9.285-9.426-9.285-21.716   c0-11.916,4.491-21.302,4.683-21.696c0.334-0.689,1.033-1.126,1.799-1.126h38.751c0.766,0,1.465,0.438,1.799,1.126   c0.191,0.394,4.683,9.78,4.683,21.696c0,12.29-8.907,21.337-9.286,21.716C66.175,94.144,65.666,94.354,65.136,94.354z    M35.695,90.354h28.562c1.813-2.062,7.578-9.322,7.578-18.302c0-8.724-2.663-16.097-3.788-18.822H31.912   c-1.124,2.732-3.79,10.129-3.79,18.822C28.122,81.072,33.882,88.302,35.695,90.354z"></path></g><g><path d="M71.463,62.193H28.23c-1.104,0-2-0.896-2-2s0.896-2,2-2h43.232c1.104,0,2,0.896,2,2S72.567,62.193,71.463,62.193z"></path></g><g><path d="M69.486,86.185H29.461c-1.104,0-2-0.896-2-2s0.896-2,2-2h40.025c1.104,0,2,0.896,2,2S70.591,86.185,69.486,86.185z"></path></g><g><path d="M60.131,53.253c-0.14,0-0.281-0.015-0.424-0.045c-1.079-0.232-1.766-1.297-1.533-2.377l6.083-28.206   c0.232-1.08,1.293-1.768,2.377-1.533c1.079,0.233,1.766,1.297,1.533,2.377l-6.083,28.206   C61.882,52.612,61.053,53.253,60.131,53.253z"></path></g><g><path d="M42.99,34.23c0,2.399-1.949,4.35-4.349,4.35c-2.396,0-4.35-1.951-4.35-4.35c0-2.41,1.954-4.351,4.35-4.351   C41.041,29.88,42.99,31.821,42.99,34.23z"></path></g><g><path d="M52.22,41.212c0,1.455-1.182,2.635-2.638,2.635c-1.451,0-2.634-1.18-2.634-2.635s1.183-2.632,2.634-2.632   C51.038,38.58,52.22,39.757,52.22,41.212z"></path></g><g><path d="M52.22,27.375c0,1.963-1.593,3.555-3.561,3.555c-1.959,0-3.56-1.592-3.56-3.555c0-1.968,1.601-3.561,3.56-3.561   C50.627,23.814,52.22,25.407,52.22,27.375z"></path></g></svg>