<?xml version="1.0" encoding="utf-8"?>
<!-- Generator: Adobe Illustrator 26.3.1, SVG Export Plug-In . SVG Version: 6.00 Build 0)  -->
<svg version="1.1" id="Layer_1" xmlns="http://www.w3.org/2000/svg" xmlns:xlink="http://www.w3.org/1999/xlink" x="0px" y="0px"
	 viewBox="0 0 100 100" style="enable-background:new 0 0 100 100;" xml:space="preserve">
<g>
	<path d="M65.1,94.4H34.8c-0.5,0-1-0.2-1.4-0.6c-0.4-0.4-9.3-9.4-9.3-21.7c0-11.9,4.5-21.3,4.7-21.7c0.3-0.7,1-1.1,1.8-1.1h38.8
		c0.8,0,1.5,0.4,1.8,1.1c0.2,0.4,4.7,9.8,4.7,21.7c0,12.3-8.9,21.3-9.3,21.7C66.2,94.1,65.7,94.4,65.1,94.4z M35.7,90.4h28.6
		c1.8-2.1,7.6-9.3,7.6-18.3c0-8.7-2.7-16.1-3.8-18.8H31.9c-1.1,2.7-3.8,10.1-3.8,18.8C28.1,81.1,33.9,88.3,35.7,90.4z"/>
</g>
<g>
	<path d="M71.5,62.2H28.2c-1.1,0-2-0.9-2-2s0.9-2,2-2h43.2c1.1,0,2,0.9,2,2S72.6,62.2,71.5,62.2z"/>
</g>
<g>
	<path d="M69.5,86.2h-40c-1.1,0-2-0.9-2-2s0.9-2,2-2h40c1.1,0,2,0.9,2,2S70.6,86.2,69.5,86.2z"/>
</g>
</svg>
